<svg xmlns="http://www.w3.org/2000/svg" width="3000" height="400"><path d="M1534,174L1591,72L1514,49Z" fill="#f1ead3" stroke="#f1ead3" stroke-width="1.51"/><path d="M1514,49L1413,50L1534,174Z" fill="#f3e9d0" stroke="#f3e9d0" stroke-width="1.51"/><path d="M1534,174L1651,201L1591,72Z" fill="#f0efe4" stroke="#f0efe4" stroke-width="1.51"/><path d="M1591,72L1659,-4L1514,49Z" fill="#e8dbba" stroke="#e8dbba" stroke-width="1.51"/><path d="M1514,49L1474,-67L1413,50Z" fill="#e9d2ac" stroke="#e9d2ac" stroke-width="1.51"/><path d="M1754,82L1659,-4L1591,72Z" fill="#e4ddbc" stroke="#e4ddbc" stroke-width="1.51"/><path d="M1413,50L1385,203L1534,174Z" fill="#f6efe0" stroke="#f6efe0" stroke-width="1.51"/><path d="M1534,174L1602,317L1651,201Z" fill="#e7f2f0" stroke="#e7f2f0" stroke-width="1.51"/><path d="M1659,-4L1474,-67L1514,49Z" fill="#e4caa4" stroke="#e4caa4" stroke-width="1.51"/><path d="M1651,201L1715,190L1591,72Z" fill="#ecefe4" stroke="#ecefe4" stroke-width="1.51"/><path d="M1511,332L1602,317L1534,174Z" fill="#deefed" stroke="#deefed" stroke-width="1.51"/><path d="M1651,201L1742,343L1715,190Z" fill="#dcefec" stroke="#dcefec" stroke-width="1.51"/><path d="M1715,190L1754,82L1591,72Z" fill="#ebebd7" stroke="#ebebd7" stroke-width="1.51"/><path d="M1385,203L1511,332L1534,174Z" fill="#ebf2f0" stroke="#ebf2f0" stroke-width="1.51"/><path d="M1659,-4L1600,-180L1474,-67Z" fill="#d3af87" stroke="#d3af87" stroke-width="1.51"/><path d="M1754,82L1701,-67L1659,-4Z" fill="#dccda6" stroke="#dccda6" stroke-width="1.51"/><path d="M1413,50L1283,121L1385,203Z" fill="#f6ecd4" stroke="#f6ecd4" stroke-width="1.51"/><path d="M1385,203L1401,333L1511,332Z" fill="#ddede7" stroke="#ddede7" stroke-width="1.51"/><path d="M1277,-53L1283,121L1413,50Z" fill="#edd9af" stroke="#edd9af" stroke-width="1.51"/><path d="M1240,303L1401,333L1385,203Z" fill="#e0ede2" stroke="#e0ede2" stroke-width="1.51"/><path d="M1474,-67L1343,-72L1413,50Z" fill="#e3c194" stroke="#e3c194" stroke-width="1.51"/><path d="M1476,-169L1343,-72L1474,-67Z" fill="#d1a880" stroke="#d1a880" stroke-width="1.51"/><path d="M1600,-180L1476,-169L1474,-67Z" fill="#c59e7d" stroke="#c59e7d" stroke-width="1.51"/><path d="M1754,82L1817,38L1701,-67Z" fill="#dbd2ac" stroke="#dbd2ac" stroke-width="1.51"/><path d="M1901,166L1817,38L1754,82Z" fill="#e0e5cc" stroke="#e0e5cc" stroke-width="1.51"/><path d="M1283,121L1258,180L1385,203Z" fill="#f6efdd" stroke="#f6efdd" stroke-width="1.51"/><path d="M1161,89L1258,180L1283,121Z" fill="#f6eacd" stroke="#f6eacd" stroke-width="1.51"/><path d="M1602,317L1742,343L1651,201Z" fill="#d2ede8" stroke="#d2ede8" stroke-width="1.51"/><path d="M1715,190L1901,166L1754,82Z" fill="#e3eddf" stroke="#e3eddf" stroke-width="1.51"/><path d="M1511,332L1603,397L1602,317Z" fill="#c0e4dd" stroke="#c0e4dd" stroke-width="1.51"/><path d="M1486,411L1603,397L1511,332Z" fill="#b6ddd6" stroke="#b6ddd6" stroke-width="1.51"/><path d="M1701,-67L1600,-180L1659,-4Z" fill="#ceae86" stroke="#ceae86" stroke-width="1.51"/><path d="M1766,-183L1600,-180L1701,-67Z" fill="#ba9b79" stroke="#ba9b79" stroke-width="1.51"/><path d="M1401,333L1486,411L1511,332Z" fill="#c0e2da" stroke="#c0e2da" stroke-width="1.51"/><path d="M1343,-72L1277,-53L1413,50Z" fill="#e4c292" stroke="#e4c292" stroke-width="1.51"/><path d="M1301,-149L1277,-53L1343,-72Z" fill="#d3aa7a" stroke="#d3aa7a" stroke-width="1.51"/><path d="M1603,397L1742,343L1602,317Z" fill="#b9e1db" stroke="#b9e1db" stroke-width="1.51"/><path d="M1817,38L1821,-29L1701,-67Z" fill="#d5c29a" stroke="#d5c29a" stroke-width="1.51"/><path d="M1364,-198L1301,-149L1343,-72Z" fill="#c49c72" stroke="#c49c72" stroke-width="1.51"/><path d="M1476,-169L1364,-198L1343,-72Z" fill="#c29b76" stroke="#c29b76" stroke-width="1.51"/><path d="M1600,-180L1364,-198L1476,-169Z" fill="#b59478" stroke="#b59478" stroke-width="1.51"/><path d="M1258,180L1240,303L1385,203Z" fill="#eeefe3" stroke="#eeefe3" stroke-width="1.51"/><path d="M1401,333L1357,440L1486,411Z" fill="#b3d7cd" stroke="#b3d7cd" stroke-width="1.51"/><path d="M1166,205L1240,303L1258,180Z" fill="#eeeede" stroke="#eeeede" stroke-width="1.51"/><path d="M1857,350L1901,166L1715,190Z" fill="#d6eeea" stroke="#d6eeea" stroke-width="1.51"/><path d="M1817,38L1949,79L1821,-29Z" fill="#d6d4ae" stroke="#d6d4ae" stroke-width="1.51"/><path d="M1862,-144L1766,-183L1821,-29Z" fill="#baa17b" stroke="#baa17b" stroke-width="1.51"/><path d="M1821,-29L1766,-183L1701,-67Z" fill="#c5a982" stroke="#c5a982" stroke-width="1.51"/><path d="M1600,-180L1766,-183L1364,-198Z" fill="#af9377" stroke="#af9377" stroke-width="1.51"/><path d="M1240,303L1357,440L1401,333Z" fill="#c2e0d1" stroke="#c2e0d1" stroke-width="1.51"/><path d="M1613,534L1759,442L1603,397Z" fill="#8fc2bc" stroke="#8fc2bc" stroke-width="1.51"/><path d="M1277,-53L1161,89L1283,121Z" fill="#eedbaf" stroke="#eedbaf" stroke-width="1.51"/><path d="M1119,-18L1161,89L1277,-53Z" fill="#e7cb96" stroke="#e7cb96" stroke-width="1.51"/><path d="M1161,89L1166,205L1258,180Z" fill="#f6ecd2" stroke="#f6ecd2" stroke-width="1.51"/><path d="M1742,343L1857,350L1715,190Z" fill="#c8e9e5" stroke="#c8e9e5" stroke-width="1.51"/><path d="M1603,397L1759,442L1742,343Z" fill="#a4d6ce" stroke="#a4d6ce" stroke-width="1.51"/><path d="M1613,534L1603,397L1486,411Z" fill="#98c6c1" stroke="#98c6c1" stroke-width="1.51"/><path d="M1834,421L1857,350L1742,343Z" fill="#a6dbd3" stroke="#a6dbd3" stroke-width="1.51"/><path d="M1956,-78L1862,-144L1821,-29Z" fill="#c1aa80" stroke="#c1aa80" stroke-width="1.51"/><path d="M1901,166L1949,79L1817,38Z" fill="#dae3c9" stroke="#dae3c9" stroke-width="1.51"/><path d="M1961,169L1949,79L1901,166Z" fill="#d7e7d6" stroke="#d7e7d6" stroke-width="1.51"/><path d="M1240,303L1218,446L1357,440Z" fill="#b3d3c2" stroke="#b3d3c2" stroke-width="1.51"/><path d="M1166,205L1168,297L1240,303Z" fill="#e4ebd9" stroke="#e4ebd9" stroke-width="1.51"/><path d="M1041,188L1168,297L1166,205Z" fill="#edebd6" stroke="#edebd6" stroke-width="1.51"/><path d="M1953,322L1961,169L1901,166Z" fill="#d0ebe6" stroke="#d0ebe6" stroke-width="1.51"/><path d="M1857,350L1953,322L1901,166Z" fill="#c3e8e2" stroke="#c3e8e2" stroke-width="1.51"/><path d="M1759,442L1834,421L1742,343Z" fill="#9bd1ca" stroke="#9bd1ca" stroke-width="1.51"/><path d="M1480,592L1613,534L1486,411Z" fill="#8bb2ad" stroke="#8bb2ad" stroke-width="1.51"/><path d="M1759,442L1779,517L1834,421Z" fill="#85beb8" stroke="#85beb8" stroke-width="1.51"/><path d="M1161,89L1041,188L1166,205Z" fill="#f5eacd" stroke="#f5eacd" stroke-width="1.51"/><path d="M1154,-140L1119,-18L1277,-53Z" fill="#d9ae76" stroke="#d9ae76" stroke-width="1.51"/><path d="M1154,-140L1277,-53L1301,-149Z" fill="#cca271" stroke="#cca271" stroke-width="1.51"/><path d="M1364,-198L1154,-140L1301,-149Z" fill="#bb956c" stroke="#bb956c" stroke-width="1.51"/><path d="M2004,-144L1956,-78L2102,1Z" fill="#b8a77b" stroke="#b8a77b" stroke-width="1.51"/><path d="M1949,79L1956,-78L1821,-29Z" fill="#cdc39a" stroke="#cdc39a" stroke-width="1.51"/><path d="M1168,297L1218,446L1240,303Z" fill="#c6dfca" stroke="#c6dfca" stroke-width="1.51"/><path d="M1357,440L1396,555L1486,411Z" fill="#99bfb5" stroke="#99bfb5" stroke-width="1.51"/><path d="M1997,422L1953,322L1857,350Z" fill="#9dd9cf" stroke="#9dd9cf" stroke-width="1.51"/><path d="M1293,596L1396,555L1357,440Z" fill="#8aaa9e" stroke="#8aaa9e" stroke-width="1.51"/><path d="M1834,421L1997,422L1857,350Z" fill="#94d0c7" stroke="#94d0c7" stroke-width="1.51"/><path d="M1613,534L1779,517L1759,442Z" fill="#82b4ae" stroke="#82b4ae" stroke-width="1.51"/><path d="M1396,555L1480,592L1486,411Z" fill="#8bb0a8" stroke="#8bb0a8" stroke-width="1.51"/><path d="M1613,534L1856,592L1779,517Z" fill="#74a49d" stroke="#74a49d" stroke-width="1.51"/><path d="M997,83L1041,188L1161,89Z" fill="#f4e4bb" stroke="#f4e4bb" stroke-width="1.51"/><path d="M1168,297L1123,475L1218,446Z" fill="#b0cfb8" stroke="#b0cfb8" stroke-width="1.51"/><path d="M997,83L1161,89L1119,-18Z" fill="#ecd6a2" stroke="#ecd6a2" stroke-width="1.51"/><path d="M1956,-78L2004,-144L1862,-144Z" fill="#b09c75" stroke="#b09c75" stroke-width="1.51"/><path d="M1862,-144L2004,-144L1766,-183Z" fill="#a99573" stroke="#a99573" stroke-width="1.51"/><path d="M2102,1L1956,-78L1949,79Z" fill="#c6c39a" stroke="#c6c39a" stroke-width="1.51"/><path d="M2097,47L1949,79L1961,169Z" fill="#d0dfc5" stroke="#d0dfc5" stroke-width="1.51"/><path d="M1021,-70L997,83L1119,-18Z" fill="#e2c285" stroke="#e2c285" stroke-width="1.51"/><path d="M1396,555L1293,596L1480,592Z" fill="#819d91" stroke="#819d91" stroke-width="1.51"/><path d="M1218,446L1293,596L1357,440Z" fill="#93b5a5" stroke="#93b5a5" stroke-width="1.51"/><path d="M1171,548L1293,596L1218,446Z" fill="#8ba896" stroke="#8ba896" stroke-width="1.51"/><path d="M1032,-120L1021,-70L1119,-18Z" fill="#d5a96b" stroke="#d5a96b" stroke-width="1.51"/><path d="M1015,299L1123,475L1168,297Z" fill="#c3dac0" stroke="#c3dac0" stroke-width="1.51"/><path d="M1015,299L1168,297L1041,188Z" fill="#e4e6ce" stroke="#e4e6ce" stroke-width="1.51"/><path d="M1154,-140L1032,-120L1119,-18Z" fill="#cfa46a" stroke="#cfa46a" stroke-width="1.51"/><path d="M936,-184L1032,-120L1154,-140Z" fill="#bc915a" stroke="#bc915a" stroke-width="1.51"/><path d="M1856,592L1997,422L1834,421Z" fill="#78b6ae" stroke="#78b6ae" stroke-width="1.51"/><path d="M2135,224L2097,47L1961,169Z" fill="#cbe3d2" stroke="#cbe3d2" stroke-width="1.51"/><path d="M936,218L1015,299L1041,188Z" fill="#e9e3c9" stroke="#e9e3c9" stroke-width="1.51"/><path d="M2135,224L1961,169L1953,322Z" fill="#c3e6e0" stroke="#c3e6e0" stroke-width="1.51"/><path d="M1123,475L1171,548L1218,446Z" fill="#95b49f" stroke="#95b49f" stroke-width="1.51"/><path d="M2097,47L2102,1L1949,79Z" fill="#c6d0ab" stroke="#c6d0ab" stroke-width="1.51"/><path d="M1998,598L1856,592L1480,592Z" fill="#6c978e" stroke="#6c978e" stroke-width="1.51"/><path d="M1480,592L1856,592L1613,534Z" fill="#779f97" stroke="#779f97" stroke-width="1.51"/><path d="M1779,517L1856,592L1834,421Z" fill="#77afa7" stroke="#77afa7" stroke-width="1.51"/><path d="M2102,1L2083,-156L2004,-144Z" fill="#ac9e74" stroke="#ac9e74" stroke-width="1.51"/><path d="M2004,-144L2083,-156L1766,-183Z" fill="#a2916f" stroke="#a2916f" stroke-width="1.51"/><path d="M2097,349L2135,224L1953,322Z" fill="#acdfd7" stroke="#acdfd7" stroke-width="1.51"/><path d="M2097,47L2223,84L2102,1Z" fill="#becda7" stroke="#becda7" stroke-width="1.51"/><path d="M2102,1L2242,-41L2083,-156Z" fill="#afa677" stroke="#afa677" stroke-width="1.51"/><path d="M2142,407L2097,349L1997,422Z" fill="#82cabf" stroke="#82cabf" stroke-width="1.51"/><path d="M1997,422L2097,349L1953,322Z" fill="#95d5cb" stroke="#95d5cb" stroke-width="1.51"/><path d="M1015,299L1025,469L1123,475Z" fill="#abc6aa" stroke="#abc6aa" stroke-width="1.51"/><path d="M1123,475L1046,527L1171,548Z" fill="#8ea991" stroke="#8ea991" stroke-width="1.51"/><path d="M997,83L936,218L1041,188Z" fill="#f2e2c0" stroke="#f2e2c0" stroke-width="1.51"/><path d="M882,52L936,218L997,83Z" fill="#efdcae" stroke="#efdcae" stroke-width="1.51"/><path d="M941,-77L997,83L1021,-70Z" fill="#ddb776" stroke="#ddb776" stroke-width="1.51"/><path d="M1032,-120L941,-77L1021,-70Z" fill="#cca061" stroke="#cca061" stroke-width="1.51"/><path d="M902,416L1025,469L1015,299Z" fill="#b1c9a9" stroke="#b1c9a9" stroke-width="1.51"/><path d="M2215,352L2177,195L2135,224Z" fill="#aedfd6" stroke="#aedfd6" stroke-width="1.51"/><path d="M2135,224L2177,195L2097,47Z" fill="#c4e0d0" stroke="#c4e0d0" stroke-width="1.51"/><path d="M1025,469L1046,527L1123,475Z" fill="#94af94" stroke="#94af94" stroke-width="1.51"/><path d="M1171,548L910,563L1293,596Z" fill="#849b82" stroke="#849b82" stroke-width="1.51"/><path d="M941,-77L882,52L997,83Z" fill="#e2c484" stroke="#e2c484" stroke-width="1.51"/><path d="M1032,-120L936,-184L941,-77Z" fill="#c09356" stroke="#c09356" stroke-width="1.51"/><path d="M769,-81L792,40L882,52Z" fill="#dbb770" stroke="#dbb770" stroke-width="1.51"/><path d="M1364,-198L936,-184L1154,-140Z" fill="#b69163" stroke="#b69163" stroke-width="1.51"/><path d="M1856,592L1998,598L1997,422Z" fill="#64a299" stroke="#64a299" stroke-width="1.51"/><path d="M2097,349L2215,352L2135,224Z" fill="#9fdad0" stroke="#9fdad0" stroke-width="1.51"/><path d="M1293,596L1998,598L1480,592Z" fill="#789992" stroke="#789992" stroke-width="1.51"/><path d="M2067,589L2142,407L1997,422Z" fill="#66b1a8" stroke="#66b1a8" stroke-width="1.51"/><path d="M2177,195L2223,84L2097,47Z" fill="#c2dbc1" stroke="#c2dbc1" stroke-width="1.51"/><path d="M2301,82L2223,84L2177,195Z" fill="#bbd8c1" stroke="#bbd8c1" stroke-width="1.51"/><path d="M1025,469L910,563L1046,527Z" fill="#8ba285" stroke="#8ba285" stroke-width="1.51"/><path d="M936,218L889,356L1015,299Z" fill="#d8dcbd" stroke="#d8dcbd" stroke-width="1.51"/><path d="M808,214L889,356L936,218Z" fill="#dfdbba" stroke="#dfdbba" stroke-width="1.51"/><path d="M889,356L902,416L1015,299Z" fill="#bfd1af" stroke="#bfd1af" stroke-width="1.51"/><path d="M1998,598L2067,589L1997,422Z" fill="#5d9f96" stroke="#5d9f96" stroke-width="1.51"/><path d="M2142,407L2215,352L2097,349Z" fill="#85cfc3" stroke="#85cfc3" stroke-width="1.51"/><path d="M2067,589L2184,421L2142,407Z" fill="#60aea5" stroke="#60aea5" stroke-width="1.51"/><path d="M2184,421L2215,352L2142,407Z" fill="#77c5ba" stroke="#77c5ba" stroke-width="1.51"/><path d="M2223,84L2242,-41L2102,1Z" fill="#b7c198" stroke="#b7c198" stroke-width="1.51"/><path d="M2301,82L2242,-41L2223,84Z" fill="#b3c59f" stroke="#b3c59f" stroke-width="1.51"/><path d="M2242,-41L2210,-192L2083,-156Z" fill="#9a9168" stroke="#9a9168" stroke-width="1.51"/><path d="M2083,-156L2210,-192L1766,-183Z" fill="#968b6b" stroke="#968b6b" stroke-width="1.51"/><path d="M1766,-183L2210,-192L1364,-198Z" fill="#a28f73" stroke="#a28f73" stroke-width="1.51"/><path d="M882,52L808,214L936,218Z" fill="#eedcb4" stroke="#eedcb4" stroke-width="1.51"/><path d="M889,356L808,351L902,416Z" fill="#b6c9a3" stroke="#b6c9a3" stroke-width="1.51"/><path d="M792,40L808,214L882,52Z" fill="#ead39c" stroke="#ead39c" stroke-width="1.51"/><path d="M769,-81L882,52L941,-77Z" fill="#d5ab63" stroke="#d5ab63" stroke-width="1.51"/><path d="M2368,171L2301,82L2177,195Z" fill="#b6d6c5" stroke="#b6d6c5" stroke-width="1.51"/><path d="M2242,-41L2303,-77L2210,-192Z" fill="#9b9469" stroke="#9b9469" stroke-width="1.51"/><path d="M808,214L808,351L889,356Z" fill="#cfd3af" stroke="#cfd3af" stroke-width="1.51"/><path d="M902,416L910,563L1025,469Z" fill="#93ab8b" stroke="#93ab8b" stroke-width="1.51"/><path d="M745,440L808,351L641,413Z" fill="#a9b68d" stroke="#a9b68d" stroke-width="1.51"/><path d="M744,534L910,563L902,416Z" fill="#8b9f7c" stroke="#8b9f7c" stroke-width="1.51"/><path d="M1046,527L910,563L1171,548Z" fill="#869d81" stroke="#869d81" stroke-width="1.51"/><path d="M2301,82L2303,-77L2242,-41Z" fill="#abb084" stroke="#abb084" stroke-width="1.51"/><path d="M634,225L808,351L808,214Z" fill="#dbd2ad" stroke="#dbd2ad" stroke-width="1.51"/><path d="M936,-184L769,-81L941,-77Z" fill="#c19251" stroke="#c19251" stroke-width="1.51"/><path d="M625,-27L673,93L792,40Z" fill="#dbb872" stroke="#dbb872" stroke-width="1.51"/><path d="M936,-184L744,-123L769,-81Z" fill="#b98b47" stroke="#b98b47" stroke-width="1.51"/><path d="M2303,-77L2328,-148L2210,-192Z" fill="#8e8861" stroke="#8e8861" stroke-width="1.51"/><path d="M2496,-54L2328,-148L2303,-77Z" fill="#938e63" stroke="#938e63" stroke-width="1.51"/><path d="M2301,82L2496,-54L2303,-77Z" fill="#a3a87c" stroke="#a3a87c" stroke-width="1.51"/><path d="M2380,289L2368,171L2177,195Z" fill="#acd7d1" stroke="#acd7d1" stroke-width="1.51"/><path d="M2380,289L2177,195L2215,352Z" fill="#a0d7cf" stroke="#a0d7cf" stroke-width="1.51"/><path d="M2342,397L2215,352L2184,421Z" fill="#72c2b7" stroke="#72c2b7" stroke-width="1.51"/><path d="M2067,589L2245,584L2184,421Z" fill="#4e9b91" stroke="#4e9b91" stroke-width="1.51"/><path d="M1998,598L2245,584L2067,589Z" fill="#4e8d82" stroke="#4e8d82" stroke-width="1.51"/><path d="M2316,519L2342,397L2184,421Z" fill="#57ada4" stroke="#57ada4" stroke-width="1.51"/><path d="M673,93L808,214L792,40Z" fill="#e9d09a" stroke="#e9d09a" stroke-width="1.51"/><path d="M808,351L745,440L902,416Z" fill="#abbe97" stroke="#abbe97" stroke-width="1.51"/><path d="M2342,397L2380,289L2215,352Z" fill="#7ec8bd" stroke="#7ec8bd" stroke-width="1.51"/><path d="M625,-27L792,40L769,-81Z" fill="#d2a55a" stroke="#d2a55a" stroke-width="1.51"/><path d="M2342,397L2419,419L2380,289Z" fill="#6dbeb3" stroke="#6dbeb3" stroke-width="1.51"/><path d="M2245,584L2316,519L2184,421Z" fill="#4a9d93" stroke="#4a9d93" stroke-width="1.51"/><path d="M2368,171L2491,104L2301,82Z" fill="#adccb5" stroke="#adccb5" stroke-width="1.51"/><path d="M2380,289L2422,173L2368,171Z" fill="#a7d2cb" stroke="#a7d2cb" stroke-width="1.51"/><path d="M2484,300L2422,173L2380,289Z" fill="#97cbc4" stroke="#97cbc4" stroke-width="1.51"/><path d="M745,440L744,534L902,416Z" fill="#94a982" stroke="#94a982" stroke-width="1.51"/><path d="M636,537L744,534L745,440Z" fill="#89946d" stroke="#89946d" stroke-width="1.51"/><path d="M673,93L634,225L808,214Z" fill="#e9cfa6" stroke="#e9cfa6" stroke-width="1.51"/><path d="M673,93L571,66L634,225Z" fill="#e5c48e" stroke="#e5c48e" stroke-width="1.51"/><path d="M744,-123L625,-27L769,-81Z" fill="#c49146" stroke="#c49146" stroke-width="1.51"/><path d="M936,-184L658,-163L744,-123Z" fill="#ae8140" stroke="#ae8140" stroke-width="1.51"/><path d="M658,-163L625,-27L744,-123Z" fill="#ba863d" stroke="#ba863d" stroke-width="1.51"/><path d="M2316,519L2419,419L2342,397Z" fill="#4ea79e" stroke="#4ea79e" stroke-width="1.51"/><path d="M617,342L641,413L808,351Z" fill="#b4bd92" stroke="#b4bd92" stroke-width="1.51"/><path d="M634,225L617,342L808,351Z" fill="#ccc79e" stroke="#ccc79e" stroke-width="1.51"/><path d="M528,201L617,342L634,225Z" fill="#d8c39b" stroke="#d8c39b" stroke-width="1.51"/><path d="M2422,173L2491,104L2368,171Z" fill="#a8cbbb" stroke="#a8cbbb" stroke-width="1.51"/><path d="M2594,199L2491,104L2422,173Z" fill="#a1c6b8" stroke="#a1c6b8" stroke-width="1.51"/><path d="M2419,419L2484,300L2380,289Z" fill="#77c0b7" stroke="#77c0b7" stroke-width="1.51"/><path d="M625,-27L571,66L673,93Z" fill="#d9b36d" stroke="#d9b36d" stroke-width="1.51"/><path d="M528,-43L571,66L625,-27Z" fill="#cf9f54" stroke="#cf9f54" stroke-width="1.51"/><path d="M2491,104L2496,-54L2301,82Z" fill="#a4b994" stroke="#a4b994" stroke-width="1.51"/><path d="M2419,419L2573,347L2484,300Z" fill="#68b8ae" stroke="#68b8ae" stroke-width="1.51"/><path d="M2316,519L2419,531L2419,419Z" fill="#3f988f" stroke="#3f988f" stroke-width="1.51"/><path d="M2245,584L2419,531L2316,519Z" fill="#3a8b82" stroke="#3a8b82" stroke-width="1.51"/><path d="M2496,-54L2500,-121L2328,-148Z" fill="#89855c" stroke="#89855c" stroke-width="1.51"/><path d="M2328,-148L2622,-200L2210,-192Z" fill="#757656" stroke="#757656" stroke-width="1.51"/><path d="M2597,-68L2500,-121L2496,-54Z" fill="#88865b" stroke="#88865b" stroke-width="1.51"/><path d="M2611,90L2496,-54L2491,104Z" fill="#9ab18e" stroke="#9ab18e" stroke-width="1.51"/><path d="M744,534L636,537L910,563Z" fill="#808d67" stroke="#808d67" stroke-width="1.51"/><path d="M641,413L636,537L745,440Z" fill="#929d75" stroke="#929d75" stroke-width="1.51"/><path d="M570,524L636,537L641,413Z" fill="#8a9067" stroke="#8a9067" stroke-width="1.51"/><path d="M570,524L641,413L528,431Z" fill="#92986d" stroke="#92986d" stroke-width="1.51"/><path d="M571,66L528,201L634,225Z" fill="#e4c294" stroke="#e4c294" stroke-width="1.51"/><path d="M571,66L443,187L528,201Z" fill="#e1bb89" stroke="#e1bb89" stroke-width="1.51"/><path d="M504,-120L528,-43L625,-27Z" fill="#c18636" stroke="#c18636" stroke-width="1.51"/><path d="M528,431L641,413L617,342Z" fill="#a8ac7f" stroke="#a8ac7f" stroke-width="1.51"/><path d="M658,-163L504,-120L625,-27Z" fill="#b77f34" stroke="#b77f34" stroke-width="1.51"/><path d="M390,83L443,187L571,66Z" fill="#deb378" stroke="#deb378" stroke-width="1.51"/><path d="M2484,300L2594,199L2422,173Z" fill="#99c8c1" stroke="#99c8c1" stroke-width="1.51"/><path d="M2573,347L2594,199L2484,300Z" fill="#83c0b9" stroke="#83c0b9" stroke-width="1.51"/><path d="M502,341L528,431L617,342Z" fill="#b0af81" stroke="#b0af81" stroke-width="1.51"/><path d="M502,341L617,342L528,201Z" fill="#cbbb91" stroke="#cbbb91" stroke-width="1.51"/><path d="M457,302L502,341L528,201Z" fill="#cfb88e" stroke="#cfb88e" stroke-width="1.51"/><path d="M2551,472L2573,347L2419,419Z" fill="#4ca69c" stroke="#4ca69c" stroke-width="1.51"/><path d="M2594,199L2611,90L2491,104Z" fill="#9dbfac" stroke="#9dbfac" stroke-width="1.51"/><path d="M2696,-33L2611,90L2710,95Z" fill="#92a885" stroke="#92a885" stroke-width="1.51"/><path d="M2611,90L2597,-68L2496,-54Z" fill="#939c72" stroke="#939c72" stroke-width="1.51"/><path d="M2419,531L2551,472L2419,419Z" fill="#3a968e" stroke="#3a968e" stroke-width="1.51"/><path d="M502,341L377,409L528,431Z" fill="#a5a072" stroke="#a5a072" stroke-width="1.51"/><path d="M390,83L571,66L528,-43Z" fill="#d2a55c" stroke="#d2a55c" stroke-width="1.51"/><path d="M443,187L457,302L528,201Z" fill="#daba90" stroke="#daba90" stroke-width="1.51"/><path d="M528,431L409,577L570,524Z" fill="#828055" stroke="#828055" stroke-width="1.51"/><path d="M2597,-68L2622,-200L2500,-121Z" fill="#78754f" stroke="#78754f" stroke-width="1.51"/><path d="M2500,-121L2622,-200L2328,-148Z" fill="#767552" stroke="#767552" stroke-width="1.51"/><path d="M2210,-192L2622,-200L1364,-198Z" fill="#8a8567" stroke="#8a8567" stroke-width="1.51"/><path d="M2711,-177L2622,-200L2597,-68Z" fill="#6e6c48" stroke="#6e6c48" stroke-width="1.51"/><path d="M504,-120L420,-56L528,-43Z" fill="#ba7d2d" stroke="#ba7d2d" stroke-width="1.51"/><path d="M420,-56L390,83L528,-43Z" fill="#c89243" stroke="#c89243" stroke-width="1.51"/><path d="M260,295L377,409L457,302Z" fill="#b4a67a" stroke="#b4a67a" stroke-width="1.51"/><path d="M281,86L316,167L390,83Z" fill="#d4a970" stroke="#d4a970" stroke-width="1.51"/><path d="M504,-120L416,-192L420,-56Z" fill="#a96c1e" stroke="#a96c1e" stroke-width="1.51"/><path d="M658,-163L416,-192L504,-120Z" fill="#a16a24" stroke="#a16a24" stroke-width="1.51"/><path d="M936,-184L416,-192L658,-163Z" fill="#a07333" stroke="#a07333" stroke-width="1.51"/><path d="M1364,-198L416,-192L936,-184Z" fill="#a6814a" stroke="#a6814a" stroke-width="1.51"/><path d="M2419,531L2607,573L2551,472Z" fill="#25837b" stroke="#25837b" stroke-width="1.51"/><path d="M2705,411L2692,306L2573,347Z" fill="#5daca2" stroke="#5daca2" stroke-width="1.51"/><path d="M2573,347L2692,306L2594,199Z" fill="#7ebab3" stroke="#7ebab3" stroke-width="1.51"/><path d="M2611,90L2696,-33L2597,-68Z" fill="#8f9970" stroke="#8f9970" stroke-width="1.51"/><path d="M2245,584L2607,573L2419,531Z" fill="#2d7f76" stroke="#2d7f76" stroke-width="1.51"/><path d="M2851,593L2607,573L2245,584Z" fill="#1b7066" stroke="#1b7066" stroke-width="1.51"/><path d="M2710,95L2611,90L2594,199Z" fill="#98b9a5" stroke="#98b9a5" stroke-width="1.51"/><path d="M2705,411L2573,347L2551,472Z" fill="#46a096" stroke="#46a096" stroke-width="1.51"/><path d="M2736,241L2710,95L2594,199Z" fill="#94bab0" stroke="#94bab0" stroke-width="1.51"/><path d="M316,167L457,302L443,187Z" fill="#d8b58b" stroke="#d8b58b" stroke-width="1.51"/><path d="M457,302L377,409L502,341Z" fill="#b4a97b" stroke="#b4a97b" stroke-width="1.51"/><path d="M2802,-47L2711,-177L2696,-33Z" fill="#7a764c" stroke="#7a764c" stroke-width="1.51"/><path d="M2692,306L2736,241L2594,199Z" fill="#86b9b2" stroke="#86b9b2" stroke-width="1.51"/><path d="M2844,318L2736,241L2692,306Z" fill="#74b0a8" stroke="#74b0a8" stroke-width="1.51"/><path d="M2699,559L2705,411L2551,472Z" fill="#27867e" stroke="#27867e" stroke-width="1.51"/><path d="M2802,-47L2696,-33L2710,95Z" fill="#8a956d" stroke="#8a956d" stroke-width="1.51"/><path d="M2696,-33L2711,-177L2597,-68Z" fill="#7c7950" stroke="#7c7950" stroke-width="1.51"/><path d="M570,524L409,577L636,537Z" fill="#7a794e" stroke="#7a794e" stroke-width="1.51"/><path d="M636,537L409,577L910,563Z" fill="#7b8057" stroke="#7b8057" stroke-width="1.51"/><path d="M910,563L409,577L1293,596Z" fill="#7d8b67" stroke="#7d8b67" stroke-width="1.51"/><path d="M377,409L409,577L528,431Z" fill="#89865a" stroke="#89865a" stroke-width="1.51"/><path d="M377,409L279,451L409,577Z" fill="#827f54" stroke="#827f54" stroke-width="1.51"/><path d="M390,83L316,167L443,187Z" fill="#d9b07d" stroke="#d9b07d" stroke-width="1.51"/><path d="M281,86L390,83L267,-24Z" fill="#c89a55" stroke="#c89a55" stroke-width="1.51"/><path d="M416,-192L341,-195L420,-56Z" fill="#9d6218" stroke="#9d6218" stroke-width="1.51"/><path d="M1364,-198L341,-195L416,-192Z" fill="#9c7336" stroke="#9c7336" stroke-width="1.51"/><path d="M2607,573L2699,559L2551,472Z" fill="#1a7971" stroke="#1a7971" stroke-width="1.51"/><path d="M2844,318L2790,188L2736,241Z" fill="#7fb0aa" stroke="#7fb0aa" stroke-width="1.51"/><path d="M2736,241L2790,188L2710,95Z" fill="#91b5aa" stroke="#91b5aa" stroke-width="1.51"/><path d="M2844,318L2692,306L2705,411Z" fill="#5ca79d" stroke="#5ca79d" stroke-width="1.51"/><path d="M267,-24L390,83L420,-56Z" fill="#c38e42" stroke="#c38e42" stroke-width="1.51"/><path d="M316,167L260,295L457,302Z" fill="#cbae85" stroke="#cbae85" stroke-width="1.51"/><path d="M2832,70L2802,-47L2710,95Z" fill="#8a9d79" stroke="#8a9d79" stroke-width="1.51"/><path d="M341,-195L267,-24L420,-56Z" fill="#aa6d20" stroke="#aa6d20" stroke-width="1.51"/><path d="M208,322L260,295L171,181Z" fill="#bfa37d" stroke="#bfa37d" stroke-width="1.51"/><path d="M171,181L260,295L316,167Z" fill="#cea984" stroke="#cea984" stroke-width="1.51"/><path d="M2790,188L2832,70L2710,95Z" fill="#91ae98" stroke="#91ae98" stroke-width="1.51"/><path d="M2931,223L2832,70L2790,188Z" fill="#8bac9e" stroke="#8bac9e" stroke-width="1.51"/><path d="M260,295L279,451L377,409Z" fill="#9e976b" stroke="#9e976b" stroke-width="1.51"/><path d="M2834,423L2844,318L2705,411Z" fill="#489a90" stroke="#489a90" stroke-width="1.51"/><path d="M2711,-177L2907,-190L2622,-200Z" fill="#595c3e" stroke="#595c3e" stroke-width="1.51"/><path d="M2802,-47L2842,-158L2711,-177Z" fill="#6c6742" stroke="#6c6742" stroke-width="1.51"/><path d="M2907,-190L2842,-158L2957,-48Z" fill="#645e39" stroke="#645e39" stroke-width="1.51"/><path d="M2842,-158L2802,-47L2957,-48Z" fill="#726d44" stroke="#726d44" stroke-width="1.51"/><path d="M2699,559L2834,423L2705,411Z" fill="#25857d" stroke="#25857d" stroke-width="1.51"/><path d="M260,295L208,322L279,451Z" fill="#a49a70" stroke="#a49a70" stroke-width="1.51"/><path d="M171,181L316,167L281,86Z" fill="#d0a676" stroke="#d0a676" stroke-width="1.51"/><path d="M409,577L278,586L1293,596Z" fill="#777950" stroke="#777950" stroke-width="1.51"/><path d="M279,451L278,586L409,577Z" fill="#716b42" stroke="#716b42" stroke-width="1.51"/><path d="M198,578L278,586L279,451Z" fill="#6c663f" stroke="#6c663f" stroke-width="1.51"/><path d="M267,-24L187,84L281,86Z" fill="#c49552" stroke="#c49552" stroke-width="1.51"/><path d="M149,-4L187,84L267,-24Z" fill="#bb8a43" stroke="#bb8a43" stroke-width="1.51"/><path d="M341,-195L220,-191L267,-24Z" fill="#985c13" stroke="#985c13" stroke-width="1.51"/><path d="M66,177L171,181L187,84Z" fill="#c89e71" stroke="#c89e71" stroke-width="1.51"/><path d="M187,84L171,181L281,86Z" fill="#cca16c" stroke="#cca16c" stroke-width="1.51"/><path d="M220,-191L149,-4L267,-24Z" fill="#a66a1d" stroke="#a66a1d" stroke-width="1.51"/><path d="M2921,319L2931,223L2844,318Z" fill="#6ea59e" stroke="#6ea59e" stroke-width="1.51"/><path d="M2844,318L2931,223L2790,188Z" fill="#7daba5" stroke="#7daba5" stroke-width="1.51"/><path d="M2909,399L2921,319L2844,318Z" fill="#549c93" stroke="#549c93" stroke-width="1.51"/><path d="M2834,423L2909,399L2844,318Z" fill="#45968d" stroke="#45968d" stroke-width="1.51"/><path d="M2699,559L2851,593L2834,423Z" fill="#0f6f67" stroke="#0f6f67" stroke-width="1.51"/><path d="M2607,573L2851,593L2699,559Z" fill="#10685f" stroke="#10685f" stroke-width="1.51"/><path d="M1998,598L2851,593L2245,584Z" fill="#327d71" stroke="#327d71" stroke-width="1.51"/><path d="M2851,593L2909,399L2834,423Z" fill="#1b7a72" stroke="#1b7a72" stroke-width="1.51"/><path d="M2842,-158L2907,-190L2711,-177Z" fill="#5a5a3a" stroke="#5a5a3a" stroke-width="1.51"/><path d="M2957,-48L2802,-47L2832,70Z" fill="#81875e" stroke="#81875e" stroke-width="1.51"/><path d="M144,440L279,451L208,322Z" fill="#908a61" stroke="#908a61" stroke-width="1.51"/><path d="M144,440L198,578L279,451Z" fill="#75714a" stroke="#75714a" stroke-width="1.51"/><path d="M144,440L42,312L68,438Z" fill="#8a845e" stroke="#8a845e" stroke-width="1.51"/><path d="M2931,223L2961,113L2832,70Z" fill="#89a693" stroke="#89a693" stroke-width="1.51"/><path d="M3048,203L2961,113L2931,223Z" fill="#85a49a" stroke="#85a49a" stroke-width="1.51"/><path d="M3028,300L2931,223L2921,319Z" fill="#6ea29a" stroke="#6ea29a" stroke-width="1.51"/><path d="M2961,113L2957,-48L2832,70Z" fill="#839572" stroke="#839572" stroke-width="1.51"/><path d="M42,312L208,322L171,181Z" fill="#b99e79" stroke="#b99e79" stroke-width="1.51"/><path d="M52,54L187,84L149,-4Z" fill="#ba8c4a" stroke="#ba8c4a" stroke-width="1.51"/><path d="M52,54L66,177L187,84Z" fill="#c29762" stroke="#c29762" stroke-width="1.51"/><path d="M56,-19L52,54L149,-4Z" fill="#b07f3a" stroke="#b07f3a" stroke-width="1.51"/><path d="M44,-179L56,-19L149,-4Z" fill="#9f6319" stroke="#9f6319" stroke-width="1.51"/><path d="M2961,113L3052,51L2957,-48Z" fill="#7f8e6a" stroke="#7f8e6a" stroke-width="1.51"/><path d="M2909,399L3028,300L2921,319Z" fill="#55988f" stroke="#55988f" stroke-width="1.51"/><path d="M3091,415L3028,300L2909,399Z" fill="#458f84" stroke="#458f84" stroke-width="1.51"/><path d="M2851,593L2965,589L2909,399Z" fill="#04675f" stroke="#04675f" stroke-width="1.51"/><path d="M42,312L144,440L208,322Z" fill="#9b9169" stroke="#9b9169" stroke-width="1.51"/><path d="M144,440L48,589L198,578Z" fill="#655f3a" stroke="#655f3a" stroke-width="1.51"/><path d="M42,312L171,181L66,177Z" fill="#c09e7c" stroke="#c09e7c" stroke-width="1.51"/><path d="M-39,305L42,312L66,177Z" fill="#b09876" stroke="#b09876" stroke-width="1.51"/><path d="M3028,300L3048,203L2931,223Z" fill="#77a19a" stroke="#77a19a" stroke-width="1.51"/><path d="M2957,-48L3030,-189L2907,-190Z" fill="#5e5834" stroke="#5e5834" stroke-width="1.51"/><path d="M3048,203L3052,51L2961,113Z" fill="#859d87" stroke="#859d87" stroke-width="1.51"/><path d="M-65,178L-39,305L66,177Z" fill="#b79779" stroke="#b79779" stroke-width="1.51"/><path d="M-65,178L66,177L52,54Z" fill="#bd966a" stroke="#bd966a" stroke-width="1.51"/><path d="M220,-191L44,-179L149,-4Z" fill="#91560e" stroke="#91560e" stroke-width="1.51"/><path d="M2907,-190L3030,-189L2622,-200Z" fill="#525437" stroke="#525437" stroke-width="1.51"/><path d="M3091,-81L3030,-189L2957,-48Z" fill="#655d36" stroke="#655d36" stroke-width="1.51"/><path d="M2965,589L3029,579L2909,399Z" fill="#06655d" stroke="#06655d" stroke-width="1.51"/><path d="M3028,300L3147,199L3048,203Z" fill="#789d95" stroke="#789d95" stroke-width="1.51"/><path d="M3052,51L3091,-81L2957,-48Z" fill="#77754b" stroke="#77754b" stroke-width="1.51"/><path d="M3176,-60L3091,-81L3052,51Z" fill="#736f43" stroke="#736f43" stroke-width="1.51"/><path d="M3172,107L3052,51L3048,203Z" fill="#829981" stroke="#829981" stroke-width="1.51"/><path d="M-40,562L48,589L68,438Z" fill="#5e5b39" stroke="#5e5b39" stroke-width="1.51"/><path d="M68,438L48,589L144,440Z" fill="#6d6945" stroke="#6d6945" stroke-width="1.51"/><path d="M198,578L48,589L278,586Z" fill="#5f552f" stroke="#5f552f" stroke-width="1.51"/><path d="M278,586L48,589L1293,596Z" fill="#726d42" stroke="#726d42" stroke-width="1.51"/><path d="M3029,579L3091,415L2909,399Z" fill="#1a736a" stroke="#1a736a" stroke-width="1.51"/><path d="M42,312L-39,305L68,438Z" fill="#948c68" stroke="#948c68" stroke-width="1.51"/><path d="M-65,178L52,54L-89,96Z" fill="#b69060" stroke="#b69060" stroke-width="1.51"/><path d="M-71,-78L52,54L56,-19Z" fill="#a5722e" stroke="#a5722e" stroke-width="1.51"/><path d="M3203,340L3147,199L3028,300Z" fill="#68968e" stroke="#68968e" stroke-width="1.51"/><path d="M44,-179L-71,-78L56,-19Z" fill="#915813" stroke="#915813" stroke-width="1.51"/><path d="M-71,-78L-89,96L52,54Z" fill="#a87d3e" stroke="#a87d3e" stroke-width="1.51"/><path d="M-86,431L68,438L-39,305Z" fill="#82805d" stroke="#82805d" stroke-width="1.51"/><path d="M3147,199L3172,107L3048,203Z" fill="#809a8c" stroke="#809a8c" stroke-width="1.51"/><path d="M3203,340L3172,107L3147,199Z" fill="#79978f" stroke="#79978f" stroke-width="1.51"/><path d="M-86,431L-39,305L-144,285Z" fill="#8e8867" stroke="#8e8867" stroke-width="1.51"/><path d="M-86,431L-40,562L68,438Z" fill="#676746" stroke="#676746" stroke-width="1.51"/><path d="M3172,107L3176,-60L3052,51Z" fill="#79835e" stroke="#79835e" stroke-width="1.51"/><path d="M3091,-81L3179,-130L3030,-189Z" fill="#5b512c" stroke="#5b512c" stroke-width="1.51"/><path d="M341,-195L-90,-187L220,-191Z" fill="#7d490b" stroke="#7d490b" stroke-width="1.51"/><path d="M220,-191L-90,-187L44,-179Z" fill="#774409" stroke="#774409" stroke-width="1.51"/><path d="M44,-179L-90,-187L-71,-78Z" fill="#7c4709" stroke="#7c4709" stroke-width="1.51"/><path d="M-71,-78L-172,-47L-89,96Z" fill="#9b6d2e" stroke="#9b6d2e" stroke-width="1.51"/><path d="M-144,285L-39,305L-65,178Z" fill="#a99275" stroke="#a99275" stroke-width="1.51"/><path d="M3203,340L3179,-130L3176,-60Z" fill="#788460" stroke="#788460" stroke-width="1.51"/><path d="M3176,-60L3179,-130L3091,-81Z" fill="#645a31" stroke="#645a31" stroke-width="1.51"/><path d="M3091,415L3203,340L3028,300Z" fill="#4b8d81" stroke="#4b8d81" stroke-width="1.51"/><path d="M3172,107L3203,340L3176,-60Z" fill="#7e937d" stroke="#7e937d" stroke-width="1.51"/><path d="M3029,579L3181,436L3091,415Z" fill="#156960" stroke="#156960" stroke-width="1.51"/><path d="M3181,436L3203,340L3091,415Z" fill="#367e72" stroke="#367e72" stroke-width="1.51"/><path d="M-86,431L-194,453L-40,562Z" fill="#5e6143" stroke="#5e6143" stroke-width="1.51"/><path d="M-199,188L-144,285L-65,178Z" fill="#ac9177" stroke="#ac9177" stroke-width="1.51"/><path d="M-199,188L-65,178L-89,96Z" fill="#b1906c" stroke="#b1906c" stroke-width="1.51"/><path d="M-194,-177L-172,-47L-71,-78Z" fill="#814e10" stroke="#814e10" stroke-width="1.51"/><path d="M-172,-47L-196,39L-89,96Z" fill="#9f793f" stroke="#9f793f" stroke-width="1.51"/><path d="M-144,285L-194,453L-86,431Z" fill="#787a5b" stroke="#787a5b" stroke-width="1.51"/><path d="M-196,39L-199,188L-89,96Z" fill="#aa895d" stroke="#aa895d" stroke-width="1.51"/><path d="M3181,436L3221,580L3203,340Z" fill="#1a6a60" stroke="#1a6a60" stroke-width="1.51"/><path d="M3203,340L3221,580L3179,-130Z" fill="#6b9389" stroke="#6b9389" stroke-width="1.51"/><path d="M3029,579L3221,580L3181,436Z" fill="#02574e" stroke="#02574e" stroke-width="1.51"/><path d="M2965,589L3221,580L3029,579Z" fill="#014f45" stroke="#014f45" stroke-width="1.51"/><path d="M-196,39L-221,594L-199,188Z" fill="#998a70" stroke="#998a70" stroke-width="1.51"/><path d="M-172,-47L-194,-177L-196,39Z" fill="#895717" stroke="#895717" stroke-width="1.51"/><path d="M-90,-187L-194,-177L-71,-78Z" fill="#754308" stroke="#754308" stroke-width="1.51"/><path d="M-199,188L-194,453L-144,285Z" fill="#90886b" stroke="#90886b" stroke-width="1.51"/><path d="M-199,188L-221,594L-194,453Z" fill="#6a7054" stroke="#6a7054" stroke-width="1.51"/><path d="M-194,453L-221,594L-40,562Z" fill="#4e5034" stroke="#4e5034" stroke-width="1.51"/><path d="M-40,562L-221,594L48,589Z" fill="#4d4929" stroke="#4d4929" stroke-width="1.51"/><path d="M48,589L-221,594L1293,596Z" fill="#6a6035" stroke="#6a6035" stroke-width="1.51"/><path d="M1293,596L-221,594L1998,598Z" fill="#7e8e71" stroke="#7e8e71" stroke-width="1.51"/><path d="M-194,-177L-221,594L-196,39Z" fill="#a98b69" stroke="#a98b69" stroke-width="1.51"/></svg>